<svg xmlns="http://www.w3.org/2000/svg" width="1600" height="500" viewBox="0 0 1600 500" role="img" aria-label="MindShift wordmark">
  <defs>
    <linearGradient id="bg" x1="0" y1="0" x2="1" y2="1">
      <stop offset="0%" stop-color="#0B1220"/>
      <stop offset="55%" stop-color="#142338"/>
      <stop offset="100%" stop-color="#0B1220"/>
    </linearGradient>
    <radialGradient id="glow1" cx="20%" cy="30%" r="70%">
      <stop offset="0%" stop-color="#FFD93D" stop-opacity="0.25"/>
      <stop offset="60%" stop-color="#FFD93D" stop-opacity="0"/>
    </radialGradient>
    <radialGradient id="glow2" cx="78%" cy="28%" r="70%">
      <stop offset="0%" stop-color="#4A90D9" stop-opacity="0.32"/>
      <stop offset="62%" stop-color="#4A90D9" stop-opacity="0"/>
    </radialGradient>
    <linearGradient id="mind" x1="0" y1="0" x2="0" y2="1">
      <stop offset="0%" stop-color="#FFFFFF"/>
      <stop offset="55%" stop-color="#EAF4FF"/>
      <stop offset="100%" stop-color="#CFE5FF"/>
    </linearGradient>
    <linearGradient id="shift" x1="0" y1="0" x2="0" y2="1">
      <stop offset="0%" stop-color="#EEFBFF"/>
      <stop offset="45%" stop-color="#74C0FC"/>
      <stop offset="100%" stop-color="#2EA3FF"/>
    </linearGradient>
    <filter id="shadow" x="-20%" y="-30%" width="140%" height="160%">
      <feDropShadow dx="0" dy="14" stdDeviation="10" flood-color="#000" flood-opacity="0.45"/>
    </filter>
  </defs>

  <rect width="1600" height="500" fill="url(#bg)"/>
  <rect width="1600" height="500" fill="url(#glow1)"/>
  <rect width="1600" height="500" fill="url(#glow2)"/>

  <g opacity="0.95" transform="translate(140 250)">
    <rect x="-64" y="-64" width="128" height="128" rx="26" fill="#163A5B" stroke="#2D5A8A" stroke-width="14" filter="url(#shadow)"/>
    <rect x="-50" y="-50" width="100" height="100" rx="22" fill="#45AAF2" opacity="0.18"/>
    <path d="M-28 10 h56" stroke="#FFD93D" stroke-width="16" stroke-linecap="round"/>
    <path d="M28 10 l-18 -16" stroke="#FFD93D" stroke-width="16" stroke-linecap="round"/>
    <path d="M28 10 l-18 16" stroke="#FFD93D" stroke-width="16" stroke-linecap="round"/>
    <text x="0" y="-8" text-anchor="middle" font-size="48" font-weight="900"
          font-family="Baloo 2, Nunito, Arial Black, system-ui, sans-serif" fill="#ffffff">MS</text>
  </g>

  <g font-family="Baloo 2, Nunito, Arial Black, system-ui, sans-serif" font-weight="900" text-anchor="start" filter="url(#shadow)">
    <text x="280" y="312" font-size="210" fill="#091624" stroke="#091624" stroke-width="12">Mind</text>
    <text x="760" y="312" font-size="210" fill="#091624" stroke="#091624" stroke-width="12">Shift</text>
    <text x="280" y="295" font-size="210" fill="url(#mind)" stroke="#2D5A8A" stroke-width="34" paint-order="stroke">Mind</text>
    <text x="760" y="295" font-size="210" fill="url(#shift)" stroke="#2D5A8A" stroke-width="34" paint-order="stroke">Shift</text>
    <text x="280" y="295" font-size="210" fill="none" stroke="#ffffff" stroke-width="8" opacity="0.55">Mind</text>
    <text x="760" y="295" font-size="210" fill="none" stroke="#ffffff" stroke-width="8" opacity="0.55">Shift</text>
  </g>

  <g opacity="0.85">
    <path d="M1410 120l10 26 26 10-26 10-10 26-10-26-26-10 26-10z" fill="#74C0FC"/>
    <path d="M1240 380l8 22 22 8-22 8-8 22-8-22-22-8 22-8z" fill="#FFD93D"/>
  </g>
</svg>
